<?xml version="1.0" encoding="UTF-8" standalone="no"?>
<!-- Created with Inkscape (http://www.inkscape.org/) -->

<svg
   width="611.42596mm"
   height="402.90314mm"
   viewBox="0 0 2310.9012 1522.7829"
   version="1.1"
   id="svg1"
   inkscape:export-filename="logo.svg"
   inkscape:export-xdpi="96"
   inkscape:export-ydpi="96"
   xmlns:inkscape="http://www.inkscape.org/namespaces/inkscape"
   xmlns:sodipodi="http://sodipodi.sourceforge.net/DTD/sodipodi-0.dtd"
   xmlns="http://www.w3.org/2000/svg"
   xmlns:svg="http://www.w3.org/2000/svg">
  <sodipodi:namedview
     id="namedview1"
     pagecolor="#ffffff"
     bordercolor="#cccccc"
     borderopacity="1"
     inkscape:showpageshadow="0"
     inkscape:pageopacity="1"
     inkscape:pagecheckerboard="0"
     inkscape:deskcolor="#d1d1d1"
     inkscape:document-units="mm">
    <inkscape:page
       x="0"
       y="-9.3827144e-15"
       width="2310.9011"
       height="1522.7828"
       id="page2"
       margin="0"
       bleed="0" />
  </sodipodi:namedview>
  <defs
     id="defs1">
    <filter
       inkscape:collect="always"
       style="color-interpolation-filters:sRGB"
       id="filter1"
       x="-0.070670154"
       y="-0.071275161"
       width="1.1413403"
       height="1.1425503">
      <feGaussianBlur
         inkscape:collect="always"
         stdDeviation="23.159876"
         id="feGaussianBlur1" />
    </filter>
    <filter
       inkscape:collect="always"
       style="color-interpolation-filters:sRGB"
       id="filter2"
       x="-0.023758721"
       y="-0.11064854"
       width="1.0475174"
       height="1.2212971">
      <feGaussianBlur
         inkscape:collect="always"
         stdDeviation="23.159876"
         id="feGaussianBlur2" />
    </filter>
  </defs>
  <g
     inkscape:label="Capa 1"
     inkscape:groupmode="layer"
     id="layer1"
     transform="translate(0.47610232,12.008191)">
    <rect
       style="opacity:0.924855;mix-blend-mode:normal;fill:#212121;fill-opacity:0.817531;stroke-width:1.67725;filter:url(#filter1)"
       id="rect4-4"
       width="786.52301"
       height="779.84674"
       x="749.90314"
       y="30.810122"
       ry="87.433914"
       inkscape:export-filename="PagosYa\frontend\src\assets\PagosYa\frontend\src\assets\logo3.png"
       inkscape:export-xdpi="96"
       inkscape:export-ydpi="96"
       transform="matrix(0.97281648,0,0,0.97281648,24.823821,12.091957)" />
    <text
       xml:space="preserve"
       style="font-style:italic;font-variant:normal;font-weight:normal;font-stretch:normal;font-size:597.793px;font-family:'Franklin Gothic Heavy';-inkscape-font-specification:'Franklin Gothic Heavy,  Italic';text-align:start;writing-mode:lr-tb;direction:ltr;text-anchor:start;opacity:0.924855;mix-blend-mode:normal;fill:#212121;fill-opacity:0.817531;stroke-width:49.8161;filter:url(#filter2)"
       x="629.01617"
       y="2942.3691"
       id="text1-5"
       transform="matrix(0.94296512,0,0,1.0036128,-550.56119,-1602.2977)"><tspan
         sodipodi:role="line"
         id="tspan1-5"
         x="629.01617"
         y="2942.3691"
         style="font-style:italic;font-variant:normal;font-weight:normal;font-stretch:normal;font-family:'Franklin Gothic Heavy';-inkscape-font-specification:'Franklin Gothic Heavy,  Italic';fill:#212121;fill-opacity:0.817531;stroke-width:49.8161">Pagos<tspan
   style="fill:#212121;fill-opacity:0.817531;stroke-width:49.8161"
   id="tspan5-1">Ya</tspan></tspan></text>
    <rect
       style="opacity:0.924855;fill:#ffffff;fill-opacity:1;stroke-width:1.63166"
       id="rect4"
       width="765.14252"
       height="758.64777"
       x="727.22839"
       y="12.091957"
       ry="85.057152"
       inkscape:export-filename="PagosYa\frontend\src\assets\PagosYa\frontend\src\assets\logo3.png"
       inkscape:export-xdpi="96"
       inkscape:export-ydpi="96" />
    <text
       xml:space="preserve"
       style="font-style:italic;font-variant:normal;font-weight:normal;font-stretch:normal;font-size:581.543px;font-family:'Franklin Gothic Heavy';-inkscape-font-specification:'Franklin Gothic Heavy,  Italic';text-align:start;writing-mode:lr-tb;direction:ltr;text-anchor:start;opacity:0.924855;fill:#ffffff;fill-opacity:1;stroke-width:48.4619"
       x="15.955146"
       y="1280.2023"
       id="text1"
       transform="scale(0.9693145,1.0316569)"><tspan
         sodipodi:role="line"
         id="tspan1"
         x="15.955146"
         y="1280.2023"
         style="font-style:italic;font-variant:normal;font-weight:normal;font-stretch:normal;font-family:'Franklin Gothic Heavy';-inkscape-font-specification:'Franklin Gothic Heavy,  Italic';fill:#ffffff;fill-opacity:1;stroke-width:48.4619">Pagos<tspan
   style="fill:#ffcc00;stroke-width:48.4619"
   id="tspan5">Ya</tspan></tspan></text>
    <path
       style="opacity:0.924855;fill:#004990;fill-opacity:1;stroke-width:1.54372"
       d="m 1116.0996,184.43468 c 0,0 1.1454,-12.49272 12.5997,-11.92488 11.4544,0.56783 239.1069,0.56783 239.1069,0.56783 0,0 64.144,15.33199 71.0163,73.53661 6.8727,58.20463 2.5773,73.25271 2.5773,73.25271 0,0 -18.0404,123.79133 -115.6877,131.17341 -97.6472,7.38193 -99.6518,6.24628 -99.6518,6.24628 l -15.1768,0.56783 c 0,0 -23.7676,0.85188 -28.063,22.998 -4.2953,22.1461 -22.0493,147.35716 -22.0493,147.35716 l -104.8062,2.83917 c 0,0 -8.0178,-0.28397 -7.4452,-9.93742 0.5727,-9.65355 67.5798,-436.6767 67.5798,-436.6767 z"
       id="path1" />
    <path
       style="opacity:0.924855;fill:#004990;fill-opacity:1;stroke-width:1.54372"
       d="m 999.12326,630.05497 c 0,0 11.88384,0 13.17264,-9.22746 1.2884,-9.22765 67.0071,-438.94808 67.0071,-438.94808 0,0 -0.8592,-8.37586 -7.1589,-8.23398 -6.2999,0.14142 -103.94719,-0.70971 -103.94719,-0.70971 l -23.91066,158.85608 c 0,0 -1.14539,26.68889 -26.91752,24.41756 -25.77201,-2.27146 -97.93358,-23.28191 -97.93358,-23.28191 0,0 96.2155,105.6202 87.05215,298.68916 82.47045,-0.56783 92.63596,-1.56166 92.63596,-1.56166 z"
       id="path2"
       sodipodi:nodetypes="cscsccsccc" />
    <path
       style="opacity:0.924855;fill:#edc30a;fill-opacity:0.996078;stroke-width:1.54372"
       d="m 886.80405,184.83248 c 0,0 9.16336,74.95604 26.34468,114.13777 17.18132,39.1816 -59.56193,14.1962 -59.56193,14.1962 0,0 -48.68053,-11.35704 -51.54399,-19.30681 -2.86361,-7.9499 -25.1993,-101.0774 -25.1993,-101.0774 l 94.49729,-17.03549 c 0,0 12.59966,-2.83929 15.46325,9.08573 z"
       id="path4-8" />
  </g>
</svg>
