<?xml version="1.0" encoding="UTF-8" standalone="no"?>
<!-- Created with Inkscape (http://www.inkscape.org/) -->

<svg
   version="1.1"
   id="svg1"
   width="300"
   height="190"
   viewBox="0 0 300 190"
   xmlns="http://www.w3.org/2000/svg"
   xmlns:svg="http://www.w3.org/2000/svg">
  <defs
     id="defs1" />
  <g
     id="g1">
    <rect
       style="opacity:0.924855;fill:#004990;fill-opacity:0.92549;stroke-width:0.215691"
       id="rect4-2-8"
       width="100.71454"
       height="100.71454"
       x="105.52529"
       y="2.7188551"
       ry="11.291792" />
    <path
       style="opacity:0.924855;fill:#ffffff;fill-opacity:1;stroke-width:0.204066"
       d="m 156.60469,27.185142 c 0,0 0.15077,-1.658471 1.65848,-1.583086 1.5077,0.07543 31.47329,0.07543 31.47329,0.07543 0,0 8.44315,2.0354 9.34775,9.762382 0.90464,7.726971 0.33925,9.724689 0.33925,9.724689 0,0 -2.37465,16.433948 -15.2278,17.413962 -12.85317,0.97999 -13.11702,0.829235 -13.11702,0.829235 l -1.99771,0.07542 c 0,0 -3.12848,0.113098 -3.69388,3.053122 -0.56539,2.940009 -2.90232,19.562444 -2.90232,19.562444 l -13.79548,0.376907 c 0,0 -1.05539,-0.03769 -0.98,-1.319224 0.0754,-1.281564 8.89544,-57.971184 8.89544,-57.971184 z"
       id="path1-2-2" />
    <path
       style="opacity:0.924855;fill:#ffffff;fill-opacity:1;stroke-width:0.204066"
       d="m 141.20727,86.343631 c 0,0 1.56426,0 1.73387,-1.225002 0.16962,-1.225011 8.82005,-58.272706 8.82005,-58.272706 0,0 -0.11308,-1.111939 -0.94231,-1.093099 -0.82923,0.01878 -13.6824,-0.0942 -13.6824,-0.0942 l -3.14733,21.088999 c 0,0 -0.15076,3.543092 -3.5431,3.241556 -3.39232,-0.301547 -12.89086,-3.090788 -12.89086,-3.090788 0,0 12.66469,14.021632 11.45854,39.652569 10.85546,-0.07538 12.19354,-0.207317 12.19354,-0.207317 z"
       id="path2-7-4" />
    <path
       style="opacity:0.924855;fill:#edc30a;fill-opacity:0.996078;stroke-width:0.204066"
       d="m 126.42287,27.237958 c 0,0 1.20614,9.950813 3.46771,15.152406 2.26155,5.201554 -7.84007,1.884613 -7.84007,1.884613 0,0 -6.40773,-1.507702 -6.78465,-2.56308 -0.37692,-1.055397 -3.31695,-13.418561 -3.31695,-13.418561 l 12.43855,-2.261553 c 0,0 1.65848,-0.37693 2.03541,1.206175 z"
       id="path4-8-6-5" />
    <text
       xml:space="preserve"
       style="font-style:italic;font-variant:normal;font-weight:normal;font-stretch:normal;font-size:76.8747px;font-family:'Franklin Gothic Heavy';-inkscape-font-specification:'Franklin Gothic Heavy,  Italic';text-align:start;writing-mode:lr-tb;direction:ltr;text-anchor:start;opacity:0.924855;fill:#004990;fill-opacity:0.92549;stroke-width:6.40622"
       x="4.1878486"
       y="167.36452"
       id="text1-2-5"
       transform="scale(0.9651918,1.0360635)"><tspan
         id="tspan1-2-1"
         x="4.1878486"
         y="167.36452"
         style="font-style:italic;font-variant:normal;font-weight:normal;font-stretch:normal;font-family:'Franklin Gothic Heavy';-inkscape-font-specification:'Franklin Gothic Heavy,  Italic';fill:#004990;fill-opacity:0.92549;stroke-width:6.40622">Pagos<tspan
   style="fill:#004990;fill-opacity:0.92549;stroke-width:6.40622"
   id="tspan5-1-7" /></tspan></text>
    <text
       xml:space="preserve"
       style="font-style:italic;font-variant:normal;font-weight:normal;font-stretch:normal;font-size:76.8747px;font-family:'Franklin Gothic Heavy';-inkscape-font-specification:'Franklin Gothic Heavy,  Italic';text-align:start;writing-mode:lr-tb;direction:ltr;text-anchor:start;opacity:0.924855;fill:#ffffff;fill-opacity:1;stroke-width:6.40622"
       x="223.73636"
       y="167.11078"
       id="text1-1-1"
       transform="scale(0.9651918,1.0360635)"><tspan
         id="tspan1-1-1"
         x="223.73636"
         y="167.11078"
         style="font-style:italic;font-variant:normal;font-weight:normal;font-stretch:normal;font-family:'Franklin Gothic Heavy';-inkscape-font-specification:'Franklin Gothic Heavy,  Italic';fill:#ffffff;fill-opacity:1;stroke-width:6.40622"><tspan
           style="fill:#ffcc00;stroke-width:6.40622"
           id="tspan5-5-5">Ya</tspan></tspan></text>
  </g>
</svg>
